<svg width="215" height="215" viewBox="0 0 215 215" fill="none" xmlns="http://www.w3.org/2000/svg">
<path d="M212.213 110.983L115.472 3.40484C111.399 -1.13495 103.573 -1.13495 99.4994 3.40484L2.75848 110.983C1.36843 112.529 0.456018 114.445 0.131702 116.5C-0.192613 118.554 0.0850762 120.659 0.931155 122.558C2.65099 126.442 6.49913 128.938 10.745 128.938H32.243V204.242C32.243 207.095 33.3754 209.832 35.3913 211.849C37.4071 213.867 40.1411 215 42.992 215H75.2389C78.0897 215 80.8238 213.867 82.8396 211.849C84.8554 209.832 85.9879 207.095 85.9879 204.242V161.211H128.984V204.242C128.984 207.095 130.116 209.832 132.132 211.849C134.148 213.867 136.882 215 139.733 215H171.98C174.831 215 177.565 213.867 179.581 211.849C181.596 209.832 182.729 207.095 182.729 204.242V128.938H204.227C206.309 128.946 208.348 128.349 210.096 127.218C211.844 126.087 213.226 124.471 214.073 122.568C214.919 120.664 215.194 118.556 214.864 116.499C214.534 114.442 213.613 112.525 212.213 110.983Z" fill="#000"/>
</svg>
