<svg width="414" height="425" viewBox="0 0 414 425" fill="none" xmlns="http://www.w3.org/2000/svg">
<path opacity="0.41" d="M153.579 296.73C149.512 296.713 145.44 296.55 141.364 296.216C96.692 292.554 44.941 271.223 22.698 232.385C3.25199 198.432 -4.38301 154.474 4.47099 116.607C12.794 81.012 38.598 52.178 74.731 41.229C115.367 28.916 160.279 43.877 200.265 27.061C258.464 2.586 331.613 22.023 372.401 68.59C408.564 109.876 417.317 176.449 405.965 228.031C400.228 254.101 385.136 279.208 361.113 292.333C341.999 302.776 318.894 304.835 297.037 302.113C279.463 299.925 263.283 294.193 246.377 289.476C232.826 285.695 221.707 287.663 207.837 290.408C189.987 293.94 171.837 296.806 153.579 296.73Z" fill="#AFAFAF"/>
<path d="M163.551 271.82C160.26 271.806 156.965 271.674 153.667 271.404C117.519 268.441 75.644 251.18 57.646 219.754C41.911 192.28 35.732 156.71 42.897 126.069C49.632 97.266 70.512 73.934 99.75 65.075C132.632 55.112 168.974 67.218 201.329 53.611C248.422 33.807 307.613 49.535 340.618 87.215C369.88 120.623 376.963 174.492 367.777 216.231C363.135 237.326 350.922 257.642 331.483 268.263C316.016 276.713 297.321 278.379 279.634 276.177C265.413 274.406 252.321 269.769 238.641 265.951C227.676 262.891 218.678 264.484 207.455 266.705C193.012 269.563 178.325 271.881 163.551 271.82Z" stroke="white" stroke-width="1.9456" stroke-miterlimit="10" stroke-dasharray="3.85 3.85"/>
<path opacity="0.87" d="M374.72 411.138C384.436 411.138 392.312 410.539 392.312 409.801C392.312 409.063 384.436 408.464 374.72 408.464C365.004 408.464 357.128 409.063 357.128 409.801C357.128 410.539 365.004 411.138 374.72 411.138Z" fill="#515159"/>
<path d="M376.953 359.219C376.953 359.219 361.891 348.986 371.566 334.112C381.241 319.238 378.822 314.069 375.436 309.881C383.659 319.238 381.857 329.899 376.953 336.662C372.049 343.424 371.272 352.627 376.953 359.219Z" fill="#AFAFAF"/>
<path d="M389.242 371.916H360.198L363.033 408.685H386.407L389.242 371.916Z" fill="#FEFEFE"/>
<path d="M392.312 370.035H357.128V374.347H392.312V370.035Z" fill="#8B8B8C"/>
<path d="M385.403 366.157H364.038C361.917 366.157 360.198 367.876 360.198 369.997V370.036H389.243V369.997C389.242 367.876 387.523 366.157 385.403 366.157Z" fill="#5A5A63"/>
<path d="M387.627 392.864L388.314 383.957H361.126L361.813 392.864H387.627Z" fill="#EDB62B"/>
<path d="M389.242 370.035V369.996C389.242 367.875 387.523 366.156 385.402 366.156H374.821C376.942 366.156 378.661 367.875 378.661 369.996V370.035H381.73V374.347H378.473L375.826 408.684H386.407L389.055 374.347H392.312V370.035H389.242Z" fill="#AFAFAF"/>
<path d="M233.313 141.388C233.313 141.388 239.4 122.299 230.507 116.756C224.854 113.851 221.765 117.47 221.765 117.47C221.765 117.47 219.107 103.973 200.79 108.432C188.925 111.32 185.183 105.204 185.183 105.204C185.183 105.204 185.072 122.123 193.243 127.154C199.159 132.227 196.89 145.94 196.89 145.94L233.313 141.388Z" fill="#2F2F35"/>
<path opacity="0.87" d="M287.274 390.842C287.274 390.842 320.251 391.833 329.454 400.328C339.133 409.263 349.287 423.215 307.621 422.946C265.955 422.677 229.018 411.209 194.072 414.849C159.126 418.488 130.449 424.763 122.095 423.371C113.741 421.979 173.286 393.454 173.286 393.454L283.837 397.511L287.274 390.842Z" fill="#515159"/>
<path d="M256.43 316.666L214.858 312.49L173.286 316.666C173.286 316.666 170.817 336.309 162.789 346.788C214.858 365.488 214.858 365.488 214.858 365.488C214.858 365.488 214.858 365.488 266.927 346.788C258.9 336.309 256.43 316.666 256.43 316.666Z" fill="#A87D1D"/>
<path d="M213.216 364.898C214.856 365.487 214.858 365.488 214.858 365.488C214.858 365.488 214.86 365.487 216.498 364.899C226.078 342.86 223.786 318.134 223.218 313.33L214.859 312.49L204.16 313.565C203.946 318.846 203.589 343 213.216 364.898Z" fill="#A87D1D"/>
<path d="M173.05 318.269C173.052 318.27 216.795 337.563 259.041 329.178C257.143 322.32 256.431 316.666 256.431 316.666L214.859 312.49L181.464 315.845L173.05 318.269Z" fill="#895436"/>
<path d="M193.242 127.153C199.158 132.226 196.889 145.939 196.889 145.939L204.628 144.972C212.576 137.899 221.548 128.944 220.245 125.571C217.962 119.659 211.368 113.758 199.209 113.083C187.05 112.408 185.182 105.203 185.182 105.203C185.182 105.203 185.071 122.122 193.242 127.153Z" fill="#515159"/>
<path d="M213.349 175.055L178.981 187.584L173.286 316.667C173.286 316.667 185.435 322.362 214.858 322.362C214.858 188.196 214.858 177.06 214.858 177.06L213.349 175.055Z" fill="white"/>
<path d="M216.367 175.055L250.735 187.584L256.43 316.667C256.43 316.667 244.281 322.362 214.858 322.362C214.858 188.196 214.858 177.06 214.858 177.06L216.367 175.055Z" fill="white"/>
<path d="M178.981 187.584L178.822 187.641C168.783 191.226 160.761 198.942 156.788 208.834L119.897 298.123L151.267 301.861L177.823 236.776L178.981 187.584Z" fill="#FF7E6E"/>
<path d="M250.735 187.584L250.895 187.641C260.934 191.226 268.956 198.942 272.929 208.834L309.82 298.123L278.45 301.861L251.894 236.776L250.735 187.584Z" fill="#FF7E6E"/>
<path d="M287.254 243.504L272.929 208.833C268.956 198.941 260.934 191.226 250.895 187.64L250.735 187.583L251.894 236.774L259.417 255.212C269.46 246.801 279.536 244.07 287.254 243.504Z" fill="#E8E8E8"/>
<path d="M142.462 243.504L156.787 208.833C160.76 198.941 168.782 191.226 178.821 187.64L178.981 187.583L177.822 236.774L170.299 255.212C160.256 246.801 150.18 244.07 142.462 243.504Z" fill="#E8E8E8"/>
<path d="M252.981 238.475C252.981 238.475 252.05 237.171 250.736 234.728L251.895 236.774C251.895 236.774 238.819 309.35 203.864 322.073C207.225 322.253 210.878 322.36 214.859 322.36C244.282 322.36 256.431 316.665 256.431 316.665L252.981 238.475Z" fill="#D3D3D3"/>
<path opacity="0.52" d="M162.789 228.966C171.654 204.099 172.147 204.289 191.51 199.733C210.872 195.177 207.065 177.347 207.065 177.347L189.013 183.927L186.221 184.945L178.981 187.584L178.821 187.641C168.782 191.226 160.76 198.942 156.787 208.833L121.425 294.422C136.359 283.429 155.238 250.145 162.789 228.966Z" fill="#FFF6E7"/>
<path opacity="0.28" d="M266.927 228.966C258.062 204.099 257.569 204.289 238.206 199.733C218.844 195.177 222.651 177.347 222.651 177.347L240.703 183.927L243.495 184.945L250.734 187.584L250.894 187.641C260.933 191.226 268.955 198.942 272.928 208.833L308.29 294.422C293.357 283.429 274.478 250.145 266.927 228.966Z" fill="#4C2A29"/>
<path d="M214.951 190.98H214.765C209.685 190.98 205.566 186.862 205.566 181.781V159.818H224.149V181.781C224.15 186.862 220.031 190.98 214.951 190.98Z" fill="#FF7E6E"/>
<path d="M224.001 176.758C224.054 176.758 224.098 176.752 224.15 176.751V159.818H215.475L205.566 163.399C205.566 163.399 209.254 176.758 224.001 176.758Z" fill="#4C2A29"/>
<path d="M236.474 146.624C236.474 149.92 233.803 152.591 230.507 152.591C227.212 152.591 224.54 149.92 224.54 146.624C224.54 143.328 227.212 140.657 230.507 140.657C233.802 140.657 236.474 143.328 236.474 146.624Z" fill="#C64F4F"/>
<path d="M231.668 152.474C232.53 149.015 233.036 144.59 233.312 141.388C232.472 140.937 231.526 140.657 230.506 140.657C227.211 140.657 224.539 143.329 224.539 146.624C224.539 149.92 227.211 152.591 230.506 152.591C230.905 152.591 231.292 152.548 231.668 152.474Z" fill="#803D3D"/>
<path d="M193.242 146.624C193.242 149.92 195.914 152.591 199.209 152.591C202.505 152.591 205.176 149.92 205.176 146.624C205.176 143.328 202.505 140.657 199.209 140.657C195.914 140.657 193.242 143.328 193.242 146.624Z" fill="#C64F4F"/>
<path d="M198.048 152.474C197.185 149.015 196.68 144.59 196.404 141.388C197.244 140.937 198.19 140.657 199.21 140.657C202.506 140.657 205.177 143.329 205.177 146.624C205.177 149.92 202.505 152.591 199.21 152.591C198.812 152.591 198.424 152.548 198.048 152.474Z" fill="#803D3D"/>
<path d="M225.36 125.754H214.858H204.356L199.158 137.111L200.032 148.351C200.499 154.349 204.374 164.706 209.826 167.251C211.446 168.007 213.162 168.511 214.858 168.511C216.554 168.511 218.27 168.007 219.89 167.251C225.342 164.706 229.217 154.35 229.684 148.351L230.558 137.111L225.36 125.754Z" fill="#FF7E6E"/>
<path d="M220.245 140.011C220.245 140.011 223.769 140.999 227.756 140.011" stroke="#2F2F35" stroke-width="1.3362" stroke-miterlimit="10" stroke-linecap="round"/>
<path d="M219.107 133.552C219.107 133.552 224.254 132.696 227.348 134.479" stroke="#2F2F35" stroke-width="2.6723" stroke-miterlimit="10" stroke-linecap="round"/>
<path d="M209.471 140.011C209.471 140.011 205.947 140.999 201.959 140.011" stroke="#2F2F35" stroke-width="1.3362" stroke-miterlimit="10" stroke-linecap="round"/>
<path d="M210.609 133.552C210.609 133.552 205.462 132.696 202.368 134.479" stroke="#2F2F35" stroke-width="2.6723" stroke-miterlimit="10" stroke-linecap="round"/>
<path opacity="0.52" d="M206.489 149.805C205.803 138.448 204.356 125.754 204.356 125.754L199.158 137.111L199.436 140.679C199.359 140.676 199.287 140.656 199.21 140.656C195.915 140.656 193.243 143.328 193.243 146.623C193.243 149.919 195.915 152.59 199.21 152.59C199.732 152.59 200.23 152.502 200.712 152.376C202.117 158.181 205.465 165.215 209.827 167.251C211.447 168.007 213.163 168.511 214.859 168.511C214.859 168.511 207.175 161.163 206.489 149.805Z" fill="#FFF6E7"/>
<path d="M250.735 367.16L131.967 331.126C116.197 326.341 99.612 335.625 95.444 351.568L95.287 352.17C90.993 368.597 101.645 385.192 118.37 388.115C162.283 395.791 241.876 408.845 283.766 410.441L301.424 422.213C304.09 423.991 307.63 423.698 309.968 421.506L310.059 421.421C312.837 418.817 312.979 414.454 310.376 411.674L307.622 408.733C307.622 408.733 305.167 396.774 293.043 391.648C280.919 386.523 279.78 373.994 276.933 367.16C274.084 360.326 255.861 356.91 250.735 367.16Z" fill="#8C4242"/>
<path d="M95.444 351.568C99.612 335.624 116.198 326.341 131.967 331.126L172.244 343.346C166.177 350.915 158.175 366.279 157.933 394.793C143.228 392.403 129.623 390.082 118.369 388.115C101.644 385.192 90.992 368.596 95.286 352.17L95.444 351.568Z" fill="#EDB62B"/>
<path opacity="0.67" d="M132.91 376.618C132.91 381.461 131.748 386.031 129.7 390.075C125.723 389.393 121.918 388.735 118.37 388.115C101.645 385.192 90.993 368.596 95.287 352.17L95.444 351.568C95.818 350.136 96.296 348.76 96.861 347.441C98.867 347.015 100.946 346.787 103.079 346.787C119.554 346.788 132.91 360.143 132.91 376.618Z" fill="#A87D1D"/>
<path d="M256.43 383.675C256.43 383.675 254.722 393.628 238.207 390.075" stroke="#7B3C38" stroke-width="1.139" stroke-miterlimit="10"/>
<path opacity="0.28" d="M266.927 379.119C266.927 379.119 241.623 377.98 188.092 368.431C144.723 360.695 132.001 338.496 128.733 330.346C129.812 330.544 130.891 330.799 131.966 331.125L250.734 367.159C255.86 356.908 274.083 360.325 276.93 367.159C279.777 373.993 280.916 386.521 293.04 391.647C305.164 396.772 307.619 408.732 307.619 408.732C307.619 408.732 295.153 400.759 287.272 399.051C279.391 397.343 266.927 379.119 266.927 379.119Z" fill="#4C2A29"/>
<path d="M272.407 409.801C272.407 409.801 294.216 430.668 312.809 422.081C315.903 420.653 316.872 416.702 314.852 413.959C299.19 392.688 279.443 369.515 271.916 360.806C270.032 358.626 267.049 357.745 264.282 358.549L242.863 364.771L272.407 409.801Z" fill="#2F2F35"/>
<path d="M242.863 364.772L222.348 358.547L237.888 406.368L272.407 409.801L242.863 364.772Z" fill="#A5A5A5"/>
<path d="M178.981 367.16L297.75 331.126C313.52 326.341 330.105 335.625 334.273 351.568L334.43 352.17C338.724 368.597 328.072 385.192 311.347 388.115C267.434 395.791 187.841 408.845 145.951 410.441L128.293 422.213C125.627 423.991 122.087 423.698 119.749 421.506L119.658 421.421C116.88 418.817 116.738 414.454 119.341 411.674L122.095 408.733C122.095 408.733 124.55 396.774 136.674 391.648C148.798 386.523 149.937 373.994 152.784 367.16C155.632 360.326 173.855 356.91 178.981 367.16Z" fill="#FF7E6E"/>
<path d="M334.272 351.568C330.104 335.624 313.518 326.341 297.749 331.126L257.472 343.346C263.539 350.915 271.541 366.279 271.782 394.793C286.487 392.403 300.092 390.082 311.346 388.115C328.071 385.192 338.723 368.596 334.429 352.17L334.272 351.568Z" fill="#EDB62B"/>
<path opacity="0.67" d="M296.806 376.618C296.806 381.461 297.968 386.031 300.016 390.075C303.993 389.393 307.798 388.735 311.346 388.115C328.071 385.192 338.723 368.596 334.429 352.17L334.272 351.568C333.898 350.136 333.42 348.76 332.855 347.441C330.849 347.015 328.77 346.787 326.637 346.787C310.162 346.788 296.806 360.143 296.806 376.618Z" fill="#A87D1D"/>
<path opacity="0.28" d="M162.789 379.119C162.789 379.119 188.093 377.98 241.624 368.431C284.993 360.695 297.715 338.496 300.983 330.346C299.904 330.544 298.825 330.799 297.75 331.125L178.981 367.16C173.856 356.909 155.632 360.326 152.785 367.16C149.938 373.994 148.799 386.522 136.675 391.648C124.551 396.773 122.096 408.733 122.096 408.733C122.096 408.733 134.562 400.76 142.443 399.052C150.323 397.343 162.789 379.119 162.789 379.119Z" fill="#4C2A29"/>
<path opacity="0.57" d="M136.674 391.648L118.87 388.347C102.756 385.775 91.843 370.542 94.592 354.457L94.7 353.827C97.697 336.29 115.497 325.443 132.457 330.819L166.074 341.474" stroke="white" stroke-width="1.1139" stroke-miterlimit="10"/>
<path d="M208.752 149.619C208.112 149.619 207.736 150.361 208.129 150.866C209.912 153.155 212.272 154.554 214.867 154.554C217.462 154.554 219.822 153.155 221.605 150.866C221.998 150.361 221.622 149.619 220.982 149.619H208.752Z" fill="white"/>
<path d="M216.621 139.76V145.938C216.621 145.938 215.2 145.135 213.223 145.938" stroke="#2F2F35" stroke-width="0.8212" stroke-miterlimit="10" stroke-linecap="round"/>
<path d="M221.765 117.469H220.245V127.135H221.765V117.469Z" fill="#FF7E6E"/>
<path d="M309.82 298.122L309.883 298.296C313.443 308.152 309.179 319.123 299.897 323.989L236.474 357.235L236.161 356.425C230.573 341.99 236.418 325.64 249.89 318.018L278.451 301.86L309.82 298.122Z" fill="#FF7E6E"/>
<path opacity="0.28" d="M296.428 318.486C296.428 320.827 297.013 323.029 298.035 324.964L299.897 323.988C307.217 320.151 311.397 312.514 311.098 304.624C310.842 304.61 310.589 304.585 310.329 304.585C302.651 304.585 296.428 310.809 296.428 318.486Z" fill="#4C2A29"/>
<path d="M278.45 301.86L296.428 291.665" stroke="#4C2A29" stroke-width="1.3362" stroke-miterlimit="10" stroke-linecap="round"/>
<path d="M120.082 298.122L120.019 298.296C116.459 308.152 120.723 319.123 130.005 323.989L193.428 357.235L193.742 356.425C199.33 341.99 193.485 325.64 180.013 318.018L151.452 301.86L120.082 298.122Z" fill="#FF7E6E"/>
<path opacity="0.28" d="M133.474 318.486C133.474 320.827 132.889 323.029 131.867 324.964L130.005 323.988C122.685 320.151 118.506 312.514 118.804 304.624C119.06 304.61 119.313 304.585 119.573 304.585C127.25 304.585 133.474 310.809 133.474 318.486Z" fill="#4C2A29"/>
<path d="M151.452 301.86L133.474 291.665" stroke="#4C2A29" stroke-width="1.3362" stroke-miterlimit="10" stroke-linecap="round"/>
<path d="M186.39 353.545C186.39 353.545 189.591 335.981 179.167 330.346" stroke="#4C2A29" stroke-width="1.3362" stroke-miterlimit="10" stroke-linecap="round"/>
<path d="M243.326 353.545C243.326 353.545 240.125 335.981 250.549 330.346" stroke="#4C2A29" stroke-width="1.3362" stroke-miterlimit="10" stroke-linecap="round"/>
<path d="M157.309 409.801C157.309 409.801 135.5 430.668 116.907 422.081C113.814 420.653 112.844 416.702 114.864 413.959C130.526 392.688 150.272 369.515 157.8 360.806C159.684 358.626 162.667 357.745 165.434 358.549L186.853 364.771L157.309 409.801Z" fill="#2F2F35"/>
<path d="M186.854 364.772L207.368 358.547L191.828 406.368L157.309 409.801L186.854 364.772Z" fill="#ECECEC"/>
<path opacity="0.28" d="M178.322 377.775C184.407 377.126 192.311 376.175 202.088 374.795L207.368 358.548L186.854 364.772L178.322 377.775Z" fill="#4C2A29"/>
<path d="M163.845 395.278L151.944 413.416C151.203 414.545 149.879 415.149 148.54 414.967L148.461 414.956C145.883 414.606 144.571 411.669 146.03 409.515L158.202 391.546C158.981 390.396 160.388 389.847 161.739 390.164L161.809 390.18C164.075 390.712 165.121 393.333 163.845 395.278Z" fill="#FFF6E7"/>
<path d="M213.223 290.447H140.391L158.348 354.408H213.223H268.098L286.055 290.447H213.223Z" fill="#AFAFAF"/>
<path d="M268.098 354.408H158.348V363.724H268.098V354.408Z" fill="#8B8B8C"/>
<path d="M213.348 336.588C223.183 336.588 231.156 332.505 231.156 327.468C231.156 322.431 223.183 318.348 213.348 318.348C203.513 318.348 195.54 322.431 195.54 327.468C195.54 332.505 203.513 336.588 213.348 336.588Z" fill="#5A5A63"/>
<path d="M286.055 286.204H140.391V290.447H286.055V286.204Z" fill="#5A5A63"/>
<path d="M175.418 357.083H164.427V360.828H175.418V357.083Z" fill="#5A5A63"/>
<path d="M191.281 357.083H180.29V360.828H191.281V357.083Z" fill="#5A5A63"/>
<path d="M268.098 359.066H201.304" stroke="#0F1201" stroke-miterlimit="10"/>
<path opacity="0.54" d="M140.391 290.447L158.348 354.409H197.437C220.647 327.499 234.749 290.447 234.749 290.447L234.701 286.204H140.391V290.447Z" fill="white"/>
<path opacity="0.57" d="M140.391 290.447H286.055" stroke="#0F1201" stroke-miterlimit="10"/>
<path opacity="0.87" d="M64.722 411.138C79.3089 411.138 91.134 410.539 91.134 409.801C91.134 409.063 79.3089 408.464 64.722 408.464C50.1351 408.464 38.31 409.063 38.31 409.801C38.31 410.539 50.1351 411.138 64.722 411.138Z" fill="#515159"/>
<path d="M68.584 396.649L70.315 394.763L69.45 395.706L70.323 394.77C70.11 394.567 49.266 373.435 74.444 278.21L71.968 277.555C46.263 374.773 67.661 395.801 68.584 396.649Z" fill="#5A5A63"/>
<path d="M60.819 279.849C70.355 288.515 68.684 298.761 68.684 298.761C68.684 298.761 59.134 294.688 56.919 281.995C56.53 279.769 59.147 278.329 60.819 279.849Z" fill="#5A5A63"/>
<path d="M84.678 285.966C72.148 288.974 68.683 298.761 68.683 298.761C68.683 298.761 79.014 299.786 87.065 289.724C88.477 287.96 86.875 285.439 84.678 285.966Z" fill="#5A5A63"/>
<path d="M54.285 304.753C64.644 312.417 64.011 322.779 64.011 322.779C64.011 322.779 54.1 319.687 50.62 307.28C50.01 305.104 52.468 303.409 54.285 304.753Z" fill="#5A5A63"/>
<path d="M78.639 308.441C66.475 312.693 64.011 322.778 64.011 322.778C64.011 322.778 74.393 322.759 81.391 311.94C82.618 310.044 80.771 307.696 78.639 308.441Z" fill="#5A5A63"/>
<path d="M50.144 326.592C61.042 333.468 61.177 343.849 61.177 343.849C61.177 343.849 51.065 341.499 46.676 329.383C45.907 327.259 48.234 325.386 50.144 326.592Z" fill="#5A5A63"/>
<path d="M74.704 328.469C62.888 333.61 61.177 343.849 61.177 343.849C61.177 343.849 71.529 343.062 77.708 331.754C78.791 329.772 76.776 327.567 74.704 328.469Z" fill="#5A5A63"/>
<path d="M81.247 260.768C81.463 273.652 72.852 279.451 72.852 279.451C72.852 279.451 69.28 269.703 77.012 259.395C78.367 257.588 81.209 258.509 81.247 260.768Z" fill="#5A5A63"/>
<path d="M77.564 354.429H49.875V409.205H77.564V354.429Z" fill="#EDB62B"/>
<path opacity="0.67" d="M77.564 354.429H66.502V409.205H77.564V354.429Z" fill="#A87D1D"/>
<path d="M89.723 93.176L79.76 95.654C78.315 96.014 76.851 95.133 76.492 93.688L75.533 89.832L90.731 86.052L91.69 89.908C92.049 91.354 91.169 92.817 89.723 93.176Z" fill="#A87D1D"/>
<path d="M126.745 81.295L40.677 102.7C39.184 103.071 37.672 102.162 37.3 100.668L23.106 43.594C22.735 42.101 23.644 40.589 25.138 40.217L111.206 18.812C112.699 18.441 114.211 19.35 114.582 20.844L128.776 77.918C129.148 79.412 128.238 80.923 126.745 81.295Z" fill="#A87D1D"/>
<path d="M124.194 71.431L121.794 78.327L45.431 97.318L38.65 92.706L24.585 36.156L110.13 14.881L124.194 71.431Z" fill="#EDB62B"/>
<path d="M66.2548 25.7941L24.58 36.157L38.6413 92.7051L80.3161 82.3422L66.2548 25.7941Z" fill="white"/>
<path d="M63.6793 30.6326L29.4377 39.1472L29.9295 41.1248L64.1711 32.6103L63.6793 30.6326Z" fill="#AFAFAF"/>
<path d="M65.26 36.9499L31.0184 45.468L31.5104 47.4456L65.7519 38.9276L65.26 36.9499Z" fill="#AFAFAF"/>
<path d="M66.8256 43.2874L32.5841 51.8019L33.0759 53.7796L67.3174 45.2651L66.8256 43.2874Z" fill="#AFAFAF"/>
<path d="M68.3992 49.6141L34.1577 58.1286L34.6494 60.1063L68.891 51.5918L68.3992 49.6141Z" fill="#AFAFAF"/>
<path d="M69.9807 55.9312L35.7391 64.4492L36.2311 66.4269L70.4726 57.9088L69.9807 55.9312Z" fill="#AFAFAF"/>
<path d="M71.5455 62.2688L37.304 70.7834L37.7957 72.761L72.0373 64.2465L71.5455 62.2688Z" fill="#AFAFAF"/>
<path d="M73.1191 68.5956L38.8776 77.1101L39.3693 79.0878L73.6109 70.5732L73.1191 68.5956Z" fill="#AFAFAF"/>
<path d="M74.7024 74.9123L40.4609 83.4304L40.9529 85.4081L75.1944 76.89L74.7024 74.9123Z" fill="#AFAFAF"/>
<path d="M110.125 14.8713L68.4507 25.2384L82.5178 81.7866L124.193 71.4194L110.125 14.8713Z" fill="white"/>
<path d="M107.235 19.7897L72.994 28.3077L73.4859 30.2854L107.727 21.7673L107.235 19.7897Z" fill="#AFAFAF"/>
<path d="M108.804 26.131L74.5623 34.6455L75.054 36.6232L109.296 28.1086L108.804 26.131Z" fill="#AFAFAF"/>
<path d="M110.377 32.4589L76.1351 40.9734L76.6268 42.9511L110.868 34.4366L110.377 32.4589Z" fill="#AFAFAF"/>
<path d="M111.957 38.7707L77.7157 47.2888L78.2077 49.2664L112.449 40.7484L111.957 38.7707Z" fill="#AFAFAF"/>
<path d="M113.524 45.1125L79.2821 53.627L79.7739 55.6047L114.015 47.0902L113.524 45.1125Z" fill="#AFAFAF"/>
<path d="M115.097 51.4404L80.855 59.9549L81.3468 61.9325L115.588 53.418L115.097 51.4404Z" fill="#AFAFAF"/>
<path d="M116.679 57.7517L82.4374 66.2698L82.9294 68.2474L117.171 59.7294L116.679 57.7517Z" fill="#AFAFAF"/>
<path d="M118.243 64.0941L84.001 72.6086L84.4928 74.5863L118.734 66.0718L118.243 64.0941Z" fill="#AFAFAF"/>
<path d="M87.113 89.871L80.519 91.511C79.074 91.87 77.612 90.99 77.252 89.546L76.65 87.125L88.476 84.184L89.078 86.605C89.437 88.049 88.557 89.512 87.113 89.871Z" fill="#EDB62B"/>
<path d="M233.466 8.557C230.046 5.305 225.725 3.087 221.276 1.605C221.246 1.595 221.178 1.576 221.076 1.549C217.046 0.469996 212.798 0.469996 208.768 1.549C208.667 1.576 208.598 1.595 208.568 1.605C204.119 3.087 199.798 5.306 196.378 8.557C186.198 18.236 187.852 35.804 197.766 45.074C200.547 47.674 201.768 51.031 202.619 54.732C202.876 55.847 204.351 67.472 203.836 67.472C208.811 67.472 214.921 67.472 214.921 67.472C214.921 67.472 221.031 67.472 226.006 67.472C225.492 67.472 226.967 55.846 227.223 54.732C228.075 51.032 229.296 47.675 232.077 45.074C241.992 35.805 243.645 18.237 233.466 8.557Z" fill="#EDB62B"/>
<path opacity="0.52" d="M210.935 54.732C210.084 51.032 208.862 47.675 206.082 45.074C196.168 35.804 194.514 18.236 204.694 8.557C208.114 5.305 212.435 3.087 216.884 1.605C216.914 1.595 216.982 1.576 217.084 1.549C217.744 1.372 218.41 1.235 219.08 1.116C215.66 0.509003 212.138 0.646004 208.768 1.549C208.667 1.576 208.598 1.595 208.568 1.605C204.119 3.087 199.797 5.306 196.378 8.557C186.198 18.236 187.852 35.804 197.766 45.074C200.547 47.674 201.768 51.031 202.619 54.732C202.876 55.847 204.351 67.472 203.836 67.472C206.693 67.472 209.918 67.472 212.152 67.472C212.667 67.472 211.192 55.846 210.935 54.732Z" fill="#FFF6E7"/>
<path d="M214.922 67.472V40.36L219.694 37.609C221.271 36.7 220.956 34.337 219.196 33.873L210.512 31.581C209.031 31.19 208.863 29.156 210.26 28.527L214.921 26.43V17.227" stroke="#FEFEFE" stroke-width="2.2387" stroke-miterlimit="10" stroke-linecap="round"/>
<path d="M228.213 71.203C228.213 72.027 227.545 72.695 226.721 72.695H202.345C201.521 72.695 200.853 72.027 200.853 71.203C200.853 70.379 201.521 69.711 202.345 69.711H226.721C227.544 69.711 228.213 70.379 228.213 71.203Z" fill="#2F2F35"/>
<path d="M228.213 75.68C228.213 76.504 227.545 77.173 226.721 77.173H202.345C201.521 77.173 200.853 76.505 200.853 75.68C200.853 74.856 201.521 74.188 202.345 74.188H226.721C227.544 74.188 228.213 74.856 228.213 75.68Z" fill="#2F2F35"/>
<path d="M228.213 80.157C228.213 80.981 227.545 81.649 226.721 81.649H202.345C201.521 81.649 200.853 80.981 200.853 80.157C200.853 79.333 201.521 78.664 202.345 78.664H226.721C227.544 78.665 228.213 79.333 228.213 80.157Z" fill="#2F2F35"/>
<path d="M214.532 92.096C219.34 92.096 223.238 88.198 223.238 83.39H205.827C205.827 88.199 209.724 92.096 214.532 92.096Z" fill="#2F2F35"/>
<path d="M317.665 97.82V90.811H314.568C313.982 87.482 312.621 84.428 310.677 81.827L313.134 79.37L308.178 74.414L305.629 76.963C303.02 75.181 299.987 73.987 296.72 73.516V69.855H289.712V73.653C286.579 74.244 283.699 75.526 281.215 77.329L278.734 74.848L273.778 79.804L276.291 82.317C274.455 84.928 273.205 87.97 272.698 91.262H269.219V98.27H272.775C273.349 101.482 274.643 104.436 276.487 106.974L273.749 109.712L278.705 114.668L281.478 111.896C284.02 113.682 286.971 114.913 290.164 115.445V119.228H297.172V115.445C300.354 114.916 303.295 113.692 305.832 111.916L308.15 114.234L313.106 109.278L310.828 107C312.768 104.339 314.096 101.215 314.629 97.82H317.665ZM293.668 106.436C287.084 106.436 281.746 101.098 281.746 94.514C281.746 87.929 287.084 82.592 293.668 82.592C300.253 82.592 305.59 87.93 305.59 94.514C305.59 101.099 300.253 106.436 293.668 106.436Z" fill="#666666"/>
<path d="M345.613 124.402V120.359H343.826C343.488 118.438 342.703 116.677 341.582 115.176L343 113.758L340.141 110.899L338.671 112.369C337.166 111.341 335.416 110.652 333.531 110.38V108.268H329.488V110.459C327.681 110.8 326.019 111.54 324.586 112.58L323.155 111.149L320.296 114.008L321.746 115.458C320.687 116.964 319.966 118.719 319.673 120.618H317.666V124.661H319.718C320.049 126.514 320.796 128.218 321.859 129.682L320.279 131.262L323.138 134.121L324.737 132.522C326.204 133.553 327.906 134.263 329.747 134.569V136.751H333.79V134.569C335.626 134.264 337.323 133.558 338.786 132.533L340.123 133.87L342.982 131.011L341.668 129.697C342.787 128.162 343.554 126.36 343.86 124.401L345.613 124.402ZM331.769 129.372C327.971 129.372 324.891 126.293 324.891 122.494C324.891 118.696 327.97 115.616 331.769 115.616C335.568 115.616 338.647 118.695 338.647 122.494C338.647 126.293 335.568 129.372 331.769 129.372Z" fill="#9E9E9E"/>
<path d="M409.313 72.039V57.646H402.952C401.748 50.809 398.954 44.538 394.962 39.195L400.009 34.148L389.832 23.971L384.598 29.205C379.24 25.546 373.012 23.094 366.302 22.125V14.607H351.909V22.407C345.476 23.62 339.56 26.254 334.459 29.957L329.365 24.863L319.188 35.04L324.349 40.201C320.578 45.563 318.012 51.81 316.971 58.571H309.825V72.964H317.129C318.308 79.56 320.966 85.626 324.752 90.838L319.128 96.462L329.305 106.639L334.999 100.946C340.22 104.615 346.279 107.143 352.836 108.234V116.003H367.229V108.234C373.763 107.147 379.804 104.634 385.013 100.986L389.774 105.747L399.951 95.57L395.274 90.893C399.258 85.428 401.986 79.014 403.079 72.04L409.313 72.039ZM360.032 89.735C346.51 89.735 335.548 78.773 335.548 65.252C335.548 51.73 346.51 40.768 360.032 40.768C373.554 40.768 384.516 51.73 384.516 65.252C384.516 78.773 373.554 89.735 360.032 89.735Z" fill="#8B8B8C"/>
<path d="M359.569 79.673C367.504 79.673 373.936 73.2407 373.936 65.306C373.936 57.3713 367.504 50.939 359.569 50.939C351.634 50.939 345.202 57.3713 345.202 65.306C345.202 73.2407 351.634 79.673 359.569 79.673Z" fill="#666666"/>
<path d="M79.715 138.801C48.845 140.673 24.849 159.173 26.12 180.121C27.391 201.069 53.446 216.533 84.316 214.66C84.339 214.659 84.362 214.657 84.385 214.656C87.423 214.469 89.548 211.534 88.797 208.585C88.432 207.15 88.226 205.647 88.202 204.095C88.045 194.11 95.769 185.531 105.715 184.632C112.933 183.98 119.527 187.373 123.333 192.895C125.211 195.62 129.203 195.813 131.234 193.199C135.875 187.225 138.341 180.424 137.911 173.341C136.641 152.392 110.586 136.928 79.715 138.801Z" fill="#5A5A63"/>
<path d="M79.5099 135.411C48.6399 137.283 24.6439 155.783 25.9149 176.731C27.1859 197.679 53.2409 213.143 84.1119 211.27C84.1349 211.269 84.1579 211.267 84.1809 211.266C87.2189 211.079 89.3439 208.144 88.5929 205.195C88.2279 203.76 88.0219 202.257 87.9979 200.705C87.8409 190.72 95.5649 182.141 105.511 181.242C112.729 180.59 119.323 183.983 123.129 189.505C125.007 192.23 128.999 192.423 131.03 189.809C135.671 183.835 138.137 177.034 137.707 169.951C136.435 149.002 110.38 133.538 79.5099 135.411Z" fill="#8B8B8C"/>
<path d="M68.6069 194.795C68.8329 198.516 65.9989 201.716 62.2779 201.942C58.5569 202.168 55.3569 199.334 55.1309 195.613C54.9049 191.892 57.7389 188.692 61.4599 188.466C65.1809 188.24 68.3809 191.074 68.6069 194.795Z" fill="#EDB62B"/>
<path d="M50.217 182.019C50.443 185.74 47.609 188.94 43.888 189.166C40.167 189.392 36.967 186.558 36.741 182.837C36.515 179.116 39.349 175.916 43.07 175.69C46.792 175.464 49.991 178.298 50.217 182.019Z" fill="#EDB62B"/>
<path d="M55.6239 159.673C55.8499 163.394 53.0159 166.594 49.2949 166.82C45.5739 167.046 42.3739 164.212 42.1479 160.491C41.9219 156.77 44.7559 153.57 48.4769 153.344C52.1989 153.118 55.3989 155.952 55.6239 159.673Z" fill="#EDB62B"/>
<path d="M78.415 147.596C78.641 151.317 75.807 154.517 72.086 154.743C68.365 154.969 65.165 152.135 64.939 148.414C64.713 144.693 67.547 141.493 71.268 141.267C74.989 141.041 78.189 143.875 78.415 147.596Z" fill="#EDB62B"/>
<path d="M104.086 147.926C104.312 151.647 101.478 154.847 97.7569 155.073C94.0359 155.299 90.8359 152.465 90.6099 148.744C90.3839 145.023 93.2179 141.823 96.9389 141.597C100.66 141.371 103.86 144.205 104.086 147.926Z" fill="#EDB62B"/>
<path d="M125.753 160.137C125.979 163.858 123.145 167.058 119.424 167.284C115.703 167.51 112.503 164.676 112.277 160.955C112.051 157.234 114.885 154.034 118.606 153.808C122.328 153.582 125.528 156.416 125.753 160.137Z" fill="#EDB62B"/>
<path opacity="0.68" d="M109.554 139.409L103.199 152.705C102.361 152.664 101.551 153.14 101.217 153.962L101.199 154.007C100.775 155.047 101.275 156.234 102.316 156.658L102.912 156.901C102.795 156.862 102.189 156.791 100.911 158.652C100.91 158.653 100.91 158.653 100.91 158.654C100.833 158.766 100.753 158.887 100.671 159.014C100.663 159.027 100.655 159.039 100.646 159.052C100.57 159.171 100.491 159.297 100.41 159.429C100.394 159.456 100.378 159.482 100.361 159.509C100.285 159.634 100.208 159.765 100.129 159.902C100.106 159.942 100.082 159.983 100.058 160.025C99.9829 160.156 99.9069 160.292 99.8289 160.434C99.7979 160.49 99.7669 160.548 99.7349 160.606C99.6609 160.743 99.5849 160.885 99.5079 161.032C99.4699 161.104 99.432 161.178 99.393 161.253C99.319 161.396 99.244 161.542 99.167 161.695C99.122 161.785 99.076 161.878 99.029 161.972C98.955 162.121 98.8809 162.272 98.8059 162.429C98.7539 162.537 98.7009 162.649 98.6469 162.762C98.5729 162.919 98.4979 163.077 98.4219 163.242C98.3639 163.366 98.3049 163.497 98.2459 163.626C98.1709 163.791 98.0959 163.956 98.0189 164.129C97.9539 164.275 97.887 164.429 97.82 164.582C97.746 164.751 97.6719 164.919 97.5959 165.095C97.5229 165.265 97.4479 165.443 97.3729 165.62C97.2989 165.796 97.2249 165.969 97.1489 166.152C97.0689 166.344 96.9869 166.546 96.9049 166.745C96.8309 166.926 96.758 167.103 96.682 167.291C96.594 167.51 96.5019 167.742 96.4119 167.971C96.3389 168.156 96.2669 168.336 96.1919 168.528C96.0909 168.786 95.9869 169.058 95.8829 169.328C95.8159 169.503 95.75 169.671 95.682 169.851C95.559 170.175 95.4329 170.515 95.3059 170.854C95.2529 170.997 95.2009 171.133 95.1469 171.279C94.9649 171.773 94.779 172.282 94.589 172.811C94.08 174.228 93.4849 175.896 92.8289 177.746C92.7529 177.961 92.679 178.17 92.6 178.39C92.501 178.67 92.3969 178.963 92.2949 179.252C92.2099 179.492 92.1269 179.727 92.0399 179.973C91.9059 180.352 91.768 180.744 91.63 181.136C91.568 181.312 91.508 181.483 91.445 181.661C91.308 182.049 91.1679 182.447 91.0279 182.846C90.9569 183.049 90.8859 183.248 90.8139 183.454C90.6819 183.828 90.5479 184.212 90.4129 184.595C90.3299 184.832 90.2479 185.064 90.1639 185.304C90.0089 185.747 89.8509 186.198 89.6919 186.651C89.6319 186.821 89.574 186.988 89.514 187.16C89.353 187.622 89.1889 188.091 89.0239 188.562C88.9539 188.763 88.8839 188.962 88.8139 189.164C88.6609 189.602 88.5059 190.047 88.3509 190.492C88.2719 190.719 88.1939 190.943 88.1139 191.172C87.9489 191.644 87.783 192.122 87.617 192.601C87.545 192.807 87.4739 193.011 87.4029 193.218C87.2389 193.689 87.0739 194.165 86.9089 194.642C86.8259 194.88 86.7439 195.116 86.6619 195.355C86.5139 195.783 86.365 196.213 86.216 196.644C86.11 196.949 86.0049 197.254 85.8989 197.561C85.7709 197.931 85.6419 198.304 85.5139 198.676C85.3919 199.03 85.2699 199.383 85.1469 199.738C85.0099 200.136 84.8719 200.535 84.7349 200.934C84.6629 201.143 84.5909 201.35 84.5189 201.56C83.3979 204.817 82.2679 208.122 81.1559 211.396C82.1359 211.371 83.1219 211.33 84.1129 211.27C84.1359 211.269 84.1589 211.267 84.1819 211.266C87.2199 211.079 89.3449 208.144 88.5939 205.195C88.2289 203.76 88.0229 202.257 87.9989 200.705C87.8619 191.966 93.7599 184.305 101.902 181.925C102.802 179.977 103.606 178.229 104.279 176.754C111.441 161.07 109.661 159.664 109.436 159.555L110.032 159.798C111.072 160.221 112.259 159.721 112.683 158.681L112.701 158.636C113.097 157.663 112.679 156.57 111.772 156.085L116.534 142.395C114.332 141.281 112.001 140.282 109.554 139.409Z" fill="#2F2F35"/>
<path opacity="0.42" d="M54.4559 158.64C54.5499 160.196 53.3649 161.535 51.8089 161.629C50.2529 161.723 48.9139 160.538 48.8199 158.982C48.7259 157.426 49.9109 156.087 51.4669 155.993C53.0229 155.899 54.3609 157.084 54.4559 158.64Z" fill="white"/>
<path opacity="0.42" d="M77.261 146.805C77.355 148.361 76.17 149.7 74.614 149.794C73.058 149.888 71.719 148.703 71.625 147.147C71.531 145.591 72.716 144.252 74.272 144.158C75.828 144.063 77.166 145.248 77.261 146.805Z" fill="white"/>
<path opacity="0.42" d="M101.408 146.201C101.502 147.757 100.317 149.096 98.7609 149.19C97.2049 149.284 95.866 148.099 95.772 146.543C95.678 144.987 96.863 143.648 98.419 143.554C99.975 143.46 101.313 144.645 101.408 146.201Z" fill="white"/>
<path opacity="0.42" d="M47.371 180.027C47.465 181.583 46.28 182.922 44.724 183.016C43.168 183.11 41.829 181.925 41.735 180.369C41.641 178.813 42.826 177.474 44.382 177.38C45.938 177.286 47.276 178.471 47.371 180.027Z" fill="white"/>
<path opacity="0.42" d="M67.382 192.836C67.476 194.392 66.2909 195.731 64.7349 195.825C63.1789 195.919 61.84 194.734 61.746 193.178C61.652 191.622 62.8369 190.283 64.3929 190.189C65.9489 190.095 67.287 191.28 67.382 192.836Z" fill="white"/>
<path d="M134.236 135.393C134.236 135.393 143.446 130.359 144.036 122.579C143.999 117.981 142.002 114.208 142.002 114.208L140.741 118.946C140.741 118.946 140.048 111.503 134.733 107.907C129.418 104.311 130.726 105.321 130.726 105.321C130.726 105.321 135.189 111.244 130.235 121.066C125.281 130.888 131.533 134.293 131.533 134.293L134.236 135.393Z" fill="#EDB62B"/>
<path d="M133.667 132.204C133.667 132.204 132.001 123.662 135.808 119.072C130.859 125.346 129.837 130.387 131.08 134.46C133.667 132.204 133.667 132.204 133.667 132.204Z" fill="#A87D1D"/>
<path d="M129.218 133.892C130.029 132.25 131.97 131.513 133.667 132.204L133.697 132.216L133.727 132.228C135.423 132.919 136.298 134.802 135.731 136.544L129.675 155.149L125.115 153.292L120.555 151.435L129.218 133.892Z" fill="white"/>
<path d="M119.85 155.594L127.565 158.735C128.605 159.159 129.792 158.659 130.216 157.618L130.234 157.573C130.658 156.532 130.158 155.346 129.117 154.922L121.402 151.781C120.362 151.357 119.175 151.857 118.751 152.898L118.733 152.943C118.31 153.983 118.81 155.17 119.85 155.594Z" fill="#CCCCCC"/>
<path d="M120.469 155.845L123.708 157.163L126.947 158.482C126.947 158.482 129.405 159.063 121.812 175.69C116.169 188.048 101.654 219.042 93.2899 235.602C92.5079 237.151 90.1619 236.196 90.6839 234.541C96.2659 216.848 107.529 184.53 112.123 171.745C118.304 154.544 120.469 155.845 120.469 155.845Z" fill="#2F2F35"/>
<path d="M103.194 215.359C99.5789 222.897 96.0889 230.06 93.2889 235.603C92.5069 237.152 90.1609 236.197 90.6829 234.542C92.5519 228.619 95.0579 221.056 97.7359 213.136L103.194 215.359Z" fill="white"/>
<path opacity="0.75" d="M102.052 200.496C113.952 185.767 118.426 157.71 118.446 157.588C117.125 159.512 115.087 163.5 112.123 171.747C109.878 177.994 106.041 188.906 102.052 200.496Z" fill="white"/>
<path d="M332.444 165.954L334.552 170.226L339.266 170.911L335.855 174.236L336.66 178.932L332.444 176.715L328.227 178.932L329.033 174.236L325.622 170.911L330.336 170.226L332.444 165.954Z" fill="#9E9E9E"/>
<path d="M393.141 159.986L396.085 165.951L402.668 166.908L397.905 171.551L399.029 178.107L393.141 175.012L387.254 178.107L388.378 171.551L383.615 166.908L390.198 165.951L393.141 159.986Z" fill="#666666"/>
<path d="M374.72 249.379L376.363 252.708L380.038 253.242L377.379 255.834L378.007 259.493L374.72 257.765L371.434 259.493L372.061 255.834L369.402 253.242L373.077 252.708L374.72 249.379Z" fill="#9E9E9E"/>
<path d="M316.095 226.824L319.039 232.789L325.621 233.745L320.858 238.388L321.983 244.944L316.095 241.849L310.207 244.944L311.332 238.388L306.568 233.745L313.151 232.789L316.095 226.824Z" fill="#666666"/>
<path d="M372.544 240.92C389.373 234.172 397.545 215.058 390.797 198.229C384.048 181.4 364.935 173.228 348.106 179.976C331.277 186.725 323.104 205.838 329.853 222.667C336.601 239.496 355.714 247.668 372.544 240.92Z" fill="#EDB62B"/>
<g opacity="0.67">
<path d="M351.481 242.063C363.078 245.299 374.953 241.88 383.054 234.108C377.568 235.578 371.63 235.65 365.763 234.013C348.299 229.14 338.092 211.033 342.965 193.569C344.602 187.702 347.738 182.659 351.836 178.727C340.993 181.633 331.919 190.023 328.683 201.62C323.811 219.083 334.018 237.19 351.481 242.063Z" fill="#A87D1D"/>
</g>
<path opacity="0.52" d="M369.128 178.822C367.493 178.366 365.851 178.042 364.216 177.843C363.36 180.913 362.893 184.144 362.893 187.487C362.893 204.576 374.857 218.861 390.863 222.449C391.267 221.417 391.623 220.356 391.927 219.266C396.798 201.802 386.591 183.694 369.128 178.822Z" fill="#FFF6E7"/>
<path d="M327.589 207.741C314.853 202.779 306.931 198.29 307.597 195.905C308.704 191.937 333.152 195.292 362.203 203.398C391.254 211.504 413.906 221.292 412.799 225.26C412.136 227.638 403.092 227.386 389.698 225.058" stroke="#666666" stroke-width="2" stroke-miterlimit="10"/>
</svg>
